<?xml version="1.0" standalone="no"?>
<!DOCTYPE svg PUBLIC "-//W3C//DTD SVG 20010904//EN"
 "http://www.w3.org/TR/2001/REC-SVG-20010904/DTD/svg10.dtd">
<svg version="1.0" xmlns="http://www.w3.org/2000/svg"
 width="500.000000pt" height="500.000000pt" viewBox="0 0 500.000000 500.000000"
 preserveAspectRatio="xMidYMid meet">

<g transform="translate(0.000000,500.000000) scale(0.100000,-0.100000)"
fill="#000000" stroke="none">
<path d="M1720 3850 c-429 -6 -422 -4 -477 -77 l-28 -36 -5 -201 c-11 -367
-11 -2229 -1 -2270 20 -83 80 -131 174 -141 34 -3 299 -5 588 -3 l527 3 -40
65 c-21 36 -42 77 -45 92 -5 24 -9 27 -67 30 -33 3 -254 5 -491 7 -236 1 -432
4 -435 7 -3 3 -6 527 -8 1165 l-2 1159 657 -2 658 -3 5 -275 c3 -151 9 -282
13 -291 17 -34 52 -39 307 -46 l255 -8 5 -287 c3 -157 7 -288 10 -291 19 -17
156 -67 184 -67 3 0 6 171 6 380 0 300 -3 387 -14 413 -17 41 -607 640 -649
660 -38 18 -507 25 -1127 17z"/>
<path d="M1855 3238 c-59 -22 -108 -63 -138 -117 -26 -46 -30 -64 -30 -125 0
-106 42 -174 137 -221 61 -31 142 -33 201 -6 52 23 107 85 130 145 43 113 -17
257 -130 311 -46 21 -131 28 -170 13z"/>
<path d="M2534 2658 c-49 -57 -124 -143 -166 -193 -43 -49 -93 -108 -112 -130
l-36 -40 -87 93 c-122 128 -129 127 -262 -36 -129 -160 -217 -281 -247 -339
-35 -70 -27 -116 26 -148 33 -19 54 -20 382 -23 l347 -4 6 29 c9 45 76 171
126 237 81 106 195 197 344 273 52 26 95 53 95 58 0 13 -173 261 -208 298 -21
22 -35 27 -72 27 -46 0 -47 0 -136 -102z"/>
<path d="M2991 2250 c-86 -23 -141 -53 -231 -125 -173 -138 -259 -333 -248
-562 13 -272 195 -505 463 -595 60 -20 89 -23 210 -23 118 1 151 4 209 24 174
57 339 225 413 421 33 86 42 243 20 347 -29 136 -118 280 -230 374 -79 66
-126 92 -222 125 -110 37 -276 43 -384 14z m322 -200 c233 -72 382 -324 323
-545 -17 -65 -52 -145 -64 -145 -12 0 -632 627 -632 639 0 13 50 40 105 57 63
20 193 17 268 -6z m-220 -516 c172 -174 313 -320 315 -324 2 -5 -11 -16 -28
-25 -131 -68 -324 -58 -454 22 -163 101 -251 294 -217 475 16 82 50 168 67
168 3 0 145 -142 317 -316z"/>
</g>
</svg>
